<svg width="202" height="64" viewBox="0 0 202 64" fill="none" xmlns="http://www.w3.org/2000/svg">
<rect y="0.661987" width="202" height="62.5915" rx="11.3803" fill="#33303E"/>
<path d="M68.8289 25.0082C68.7451 25.0082 68.678 24.983 68.6277 24.9327C68.5774 24.874 68.5522 24.8027 68.5522 24.7189V16.5052C68.5522 16.413 68.5774 16.3417 68.6277 16.2914C68.678 16.2327 68.7451 16.2034 68.8289 16.2034H71.6716C72.9378 16.2034 73.8519 16.4885 74.4137 17.0587C74.9755 17.6205 75.2648 18.4716 75.2816 19.6121C75.29 19.8553 75.2942 20.1823 75.2942 20.5932C75.2942 21.0041 75.29 21.3353 75.2816 21.5869C75.2648 22.3835 75.1349 23.0334 74.8917 23.5365C74.6569 24.0313 74.2837 24.4002 73.7722 24.6434C73.2607 24.8866 72.5815 25.0082 71.7345 25.0082H68.8289ZM71.6716 23.9642C72.2586 23.9642 72.724 23.8845 73.0678 23.7252C73.42 23.5575 73.6716 23.3017 73.8225 22.9579C73.9818 22.6057 74.0699 22.1319 74.0867 21.5366C74.1034 21.0334 74.1118 20.719 74.1118 20.5932C74.1118 20.459 74.1034 20.1488 74.0867 19.6624C74.0699 18.8238 73.8686 18.2117 73.4829 17.826C73.1056 17.4318 72.4808 17.2348 71.6087 17.2348H69.7346V23.9642H71.6716ZM79.7026 25.134C78.7802 25.134 78.0674 24.874 77.5643 24.3541C77.0695 23.8342 76.8054 23.1424 76.7718 22.2787L76.7593 21.7378L76.7718 21.1969C76.8054 20.3332 77.0737 19.6414 77.5769 19.1215C78.0884 18.6016 78.7969 18.3417 79.7026 18.3417C80.6082 18.3417 81.3126 18.6016 81.8157 19.1215C82.3273 19.6414 82.5998 20.3332 82.6333 21.1969C82.6501 21.3814 82.6585 21.5617 82.6585 21.7378C82.6585 21.9139 82.6501 22.0942 82.6333 22.2787C82.5998 23.1424 82.3315 23.8342 81.8283 24.3541C81.3336 24.874 80.625 25.134 79.7026 25.134ZM79.7026 24.1906C80.2393 24.1906 80.6627 24.0229 80.973 23.6875C81.2916 23.3436 81.4636 22.8531 81.4887 22.2158C81.4971 22.1319 81.5013 21.9726 81.5013 21.7378C81.5013 21.503 81.4971 21.3437 81.4887 21.2598C81.4636 20.6225 81.2916 20.1362 80.973 19.8008C80.6627 19.4569 80.2393 19.285 79.7026 19.285C79.1659 19.285 78.7382 19.4569 78.4196 19.8008C78.1093 20.1362 77.9416 20.6225 77.9165 21.2598L77.9039 21.7378L77.9165 22.2158C77.9416 22.8531 78.1093 23.3436 78.4196 23.6875C78.7382 24.0229 79.1659 24.1906 79.7026 24.1906ZM85.8105 25.0082C85.6931 25.0082 85.6051 24.983 85.5464 24.9327C85.4877 24.8824 85.4416 24.8027 85.408 24.6937L83.6219 18.8574L83.5968 18.7316C83.5968 18.6561 83.6219 18.5932 83.6722 18.5429C83.7225 18.4926 83.7854 18.4675 83.8609 18.4675H84.3766C84.4605 18.4675 84.5276 18.4926 84.5779 18.5429C84.6366 18.5849 84.6701 18.6268 84.6785 18.6687L86.0998 23.4736L87.6092 18.7316C87.626 18.6645 87.6637 18.6058 87.7224 18.5555C87.7811 18.4968 87.8608 18.4675 87.9614 18.4675H88.3639C88.4646 18.4675 88.5442 18.4968 88.6029 18.5555C88.6616 18.6058 88.6994 18.6645 88.7161 18.7316L90.2255 23.4736L91.6469 18.6687C91.6553 18.6268 91.6846 18.5849 91.7349 18.5429C91.7936 18.4926 91.8649 18.4675 91.9488 18.4675H92.4645C92.5399 18.4675 92.6028 18.4926 92.6531 18.5429C92.7035 18.5932 92.7286 18.6561 92.7286 18.7316L92.7035 18.8574L90.9173 24.6937C90.8838 24.8027 90.8377 24.8824 90.779 24.9327C90.7203 24.983 90.6322 25.0082 90.5148 25.0082H90.062C89.844 25.0082 89.7014 24.9034 89.6343 24.6937L88.1627 20.1404L86.691 24.6937C86.6239 24.9034 86.4814 25.0082 86.2634 25.0082H85.8105ZM94.4242 25.0082C94.3404 25.0082 94.2691 24.983 94.2104 24.9327C94.1601 24.874 94.1349 24.8027 94.1349 24.7189V18.7568C94.1349 18.6729 94.1601 18.6058 94.2104 18.5555C94.2691 18.4968 94.3404 18.4675 94.4242 18.4675H94.9651C95.0573 18.4675 95.1286 18.4926 95.1789 18.5429C95.2292 18.5932 95.2544 18.6645 95.2544 18.7568V19.3102C95.506 18.9999 95.7953 18.7609 96.1223 18.5932C96.4577 18.4255 96.8728 18.3417 97.3676 18.3417C98.1726 18.3417 98.7973 18.6016 99.2417 19.1215C99.6862 19.633 99.9084 20.3123 99.9084 21.1592V24.7189C99.9084 24.8027 99.879 24.874 99.8203 24.9327C99.77 24.983 99.7029 25.0082 99.6191 25.0082H99.0405C98.9566 25.0082 98.8853 24.983 98.8266 24.9327C98.7763 24.874 98.7512 24.8027 98.7512 24.7189V21.2347C98.7512 20.6309 98.6044 20.1613 98.3109 19.8259C98.0174 19.4905 97.5982 19.3228 97.0531 19.3228C96.5164 19.3228 96.0888 19.4947 95.7701 19.8385C95.4515 20.1739 95.2921 20.6393 95.2921 21.2347V24.7189C95.2921 24.8027 95.2628 24.874 95.2041 24.9327C95.1538 24.983 95.0867 25.0082 95.0028 25.0082H94.4242ZM102.028 25.0082C101.944 25.0082 101.873 24.983 101.814 24.9327C101.764 24.874 101.739 24.8027 101.739 24.7189V16.3669C101.739 16.2746 101.764 16.2034 101.814 16.153C101.873 16.1027 101.944 16.0776 102.028 16.0776H102.581C102.665 16.0776 102.732 16.1069 102.783 16.1656C102.841 16.2159 102.871 16.283 102.871 16.3669V24.7189C102.871 24.8027 102.841 24.874 102.783 24.9327C102.732 24.983 102.665 25.0082 102.581 25.0082H102.028ZM107.414 25.134C106.492 25.134 105.779 24.874 105.276 24.3541C104.781 23.8342 104.517 23.1424 104.483 22.2787L104.471 21.7378L104.483 21.1969C104.517 20.3332 104.785 19.6414 105.288 19.1215C105.8 18.6016 106.509 18.3417 107.414 18.3417C108.32 18.3417 109.024 18.6016 109.527 19.1215C110.039 19.6414 110.311 20.3332 110.345 21.1969C110.362 21.3814 110.37 21.5617 110.37 21.7378C110.37 21.9139 110.362 22.0942 110.345 22.2787C110.311 23.1424 110.043 23.8342 109.54 24.3541C109.045 24.874 108.337 25.134 107.414 25.134ZM107.414 24.1906C107.951 24.1906 108.374 24.0229 108.685 23.6875C109.003 23.3436 109.175 22.8531 109.2 22.2158C109.209 22.1319 109.213 21.9726 109.213 21.7378C109.213 21.503 109.209 21.3437 109.2 21.2598C109.175 20.6225 109.003 20.1362 108.685 19.8008C108.374 19.4569 107.951 19.285 107.414 19.285C106.878 19.285 106.45 19.4569 106.131 19.8008C105.821 20.1362 105.653 20.6225 105.628 21.2598L105.615 21.7378L105.628 22.2158C105.653 22.8531 105.821 23.3436 106.131 23.6875C106.45 24.0229 106.878 24.1906 107.414 24.1906ZM113.77 25.134C113.359 25.134 112.977 25.0501 112.625 24.8824C112.281 24.7147 112.004 24.4883 111.795 24.2032C111.594 23.9097 111.493 23.5868 111.493 23.2346C111.493 22.6812 111.719 22.2284 112.172 21.8762C112.625 21.524 113.241 21.2892 114.021 21.1718L115.908 20.9076V20.5429C115.908 19.6792 115.409 19.2473 114.411 19.2473C114.025 19.2473 113.715 19.327 113.48 19.4863C113.245 19.6372 113.074 19.8175 112.965 20.0272C112.931 20.111 112.893 20.1697 112.851 20.2033C112.818 20.2284 112.768 20.241 112.7 20.241H112.21C112.134 20.241 112.067 20.2158 112.009 20.1655C111.958 20.1068 111.933 20.0397 111.933 19.9643C111.933 19.7714 112.021 19.5492 112.197 19.2976C112.382 19.0377 112.663 18.8155 113.04 18.631C113.417 18.4381 113.879 18.3417 114.424 18.3417C115.363 18.3417 116.034 18.5597 116.436 18.9957C116.847 19.4318 117.053 19.9769 117.053 20.6309V24.7189C117.053 24.8027 117.023 24.874 116.964 24.9327C116.914 24.983 116.847 25.0082 116.763 25.0082H116.21C116.126 25.0082 116.059 24.983 116.009 24.9327C115.958 24.874 115.933 24.8027 115.933 24.7189V24.1654C115.749 24.4422 115.48 24.6728 115.128 24.8572C114.776 25.0417 114.323 25.134 113.77 25.134ZM114.021 24.2157C114.575 24.2157 115.027 24.0355 115.38 23.6749C115.732 23.3143 115.908 22.7902 115.908 22.1026V21.7504L114.436 21.9642C113.832 22.0481 113.375 22.1906 113.065 22.3919C112.755 22.5931 112.6 22.8447 112.6 23.1466C112.6 23.4904 112.738 23.7545 113.015 23.939C113.3 24.1235 113.635 24.2157 114.021 24.2157ZM121.264 25.134C120.383 25.134 119.721 24.8489 119.276 24.2786C118.84 23.7084 118.606 22.9873 118.572 22.1152L118.559 21.7378L118.572 21.3605C118.606 20.4968 118.845 19.7798 119.289 19.2096C119.733 18.631 120.392 18.3417 121.264 18.3417C122.136 18.3417 122.815 18.6519 123.301 19.2725V16.3669C123.301 16.283 123.327 16.2159 123.377 16.1656C123.436 16.1069 123.507 16.0776 123.591 16.0776H124.157C124.241 16.0776 124.308 16.1069 124.358 16.1656C124.417 16.2159 124.446 16.283 124.446 16.3669V24.7189C124.446 24.8027 124.417 24.874 124.358 24.9327C124.308 24.983 124.241 25.0082 124.157 25.0082H123.616C123.532 25.0082 123.465 24.983 123.415 24.9327C123.364 24.874 123.339 24.8027 123.339 24.7189V24.178C122.861 24.8153 122.169 25.134 121.264 25.134ZM121.503 24.1529C122.09 24.1529 122.53 23.96 122.824 23.5743C123.117 23.1801 123.276 22.7147 123.301 22.1781C123.31 22.0858 123.314 21.9265 123.314 21.7001C123.314 21.4653 123.31 21.3018 123.301 21.2095C123.285 20.698 123.121 20.2578 122.811 19.8888C122.509 19.5115 122.073 19.3228 121.503 19.3228C120.899 19.3228 120.459 19.5115 120.182 19.8888C119.905 20.2662 119.754 20.7609 119.729 21.373L119.717 21.7378C119.717 23.3478 120.312 24.1529 121.503 24.1529ZM131.37 25.0082C131.152 25.0082 130.997 24.9034 130.905 24.6937L128.566 18.8574C128.557 18.8322 128.553 18.7903 128.553 18.7316C128.553 18.6561 128.578 18.5932 128.628 18.5429C128.679 18.4926 128.737 18.4675 128.804 18.4675H129.383C129.517 18.4675 129.618 18.5345 129.685 18.6687L131.622 23.6875L133.559 18.6687C133.576 18.6184 133.609 18.5723 133.66 18.5303C133.718 18.4884 133.786 18.4675 133.861 18.4675H134.44C134.507 18.4675 134.565 18.4926 134.616 18.5429C134.666 18.5932 134.691 18.6561 134.691 18.7316L134.666 18.8574L132.339 24.6937C132.247 24.9034 132.092 25.0082 131.874 25.0082H131.37ZM136.223 17.2348C136.139 17.2348 136.068 17.2096 136.009 17.1593C135.959 17.1006 135.933 17.0293 135.933 16.9455V16.2914C135.933 16.2076 135.959 16.1363 136.009 16.0776C136.068 16.0189 136.139 15.9895 136.223 15.9895H136.965C137.049 15.9895 137.12 16.0189 137.179 16.0776C137.237 16.1363 137.267 16.2076 137.267 16.2914V16.9455C137.267 17.0293 137.237 17.1006 137.179 17.1593C137.12 17.2096 137.049 17.2348 136.965 17.2348H136.223ZM136.323 25.0082C136.239 25.0082 136.168 24.983 136.109 24.9327C136.059 24.874 136.034 24.8027 136.034 24.7189V18.7568C136.034 18.6729 136.059 18.6058 136.109 18.5555C136.168 18.4968 136.239 18.4675 136.323 18.4675H136.877C136.961 18.4675 137.028 18.4968 137.078 18.5555C137.137 18.6058 137.166 18.6729 137.166 18.7568V24.7189C137.166 24.8027 137.137 24.874 137.078 24.9327C137.028 24.983 136.961 25.0082 136.877 25.0082H136.323ZM140.867 25.134C140.456 25.134 140.075 25.0501 139.722 24.8824C139.379 24.7147 139.102 24.4883 138.892 24.2032C138.691 23.9097 138.59 23.5868 138.59 23.2346C138.59 22.6812 138.817 22.2284 139.27 21.8762C139.722 21.524 140.339 21.2892 141.119 21.1718L143.005 20.9076V20.5429C143.005 19.6792 142.506 19.2473 141.508 19.2473C141.123 19.2473 140.812 19.327 140.578 19.4863C140.343 19.6372 140.171 19.8175 140.062 20.0272C140.028 20.111 139.991 20.1697 139.949 20.2033C139.915 20.2284 139.865 20.241 139.798 20.241H139.307C139.232 20.241 139.165 20.2158 139.106 20.1655C139.056 20.1068 139.031 20.0397 139.031 19.9643C139.031 19.7714 139.119 19.5492 139.295 19.2976C139.479 19.0377 139.76 18.8155 140.137 18.631C140.515 18.4381 140.976 18.3417 141.521 18.3417C142.46 18.3417 143.131 18.5597 143.534 18.9957C143.944 19.4318 144.15 19.9769 144.15 20.6309V24.7189C144.15 24.8027 144.121 24.874 144.062 24.9327C144.012 24.983 143.944 25.0082 143.861 25.0082H143.307C143.223 25.0082 143.156 24.983 143.106 24.9327C143.056 24.874 143.03 24.8027 143.03 24.7189V24.1654C142.846 24.4422 142.578 24.6728 142.225 24.8572C141.873 25.0417 141.42 25.134 140.867 25.134ZM141.119 24.2157C141.672 24.2157 142.125 24.0355 142.477 23.6749C142.829 23.3143 143.005 22.7902 143.005 22.1026V21.7504L141.534 21.9642C140.93 22.0481 140.473 22.1906 140.163 22.3919C139.852 22.5931 139.697 22.8447 139.697 23.1466C139.697 23.4904 139.836 23.7545 140.112 23.939C140.397 24.1235 140.733 24.2157 141.119 24.2157Z" fill="white"/>
<path d="M73.4997 45.9471C71.8785 45.9471 70.6095 45.5558 69.6926 44.7732C68.7758 43.9793 68.2895 42.8501 68.2336 41.3854C68.2224 41.0723 68.2168 40.5636 68.2168 39.8592C68.2168 39.1548 68.2224 38.6405 68.2336 38.3163C68.2783 36.9075 68.7646 35.8174 69.6926 35.0459C70.6318 34.2633 71.9008 33.8719 73.4997 33.8719C74.573 33.8719 75.5066 34.0452 76.3004 34.3918C77.1055 34.7385 77.7148 35.1857 78.1285 35.7335C78.5534 36.2702 78.777 36.8237 78.7993 37.3939C78.7993 37.4945 78.7602 37.5839 78.6819 37.6622C78.6149 37.7293 78.531 37.7628 78.4304 37.7628H75.8309C75.7191 37.7628 75.6296 37.7461 75.5625 37.7125C75.5066 37.6678 75.4507 37.6063 75.3948 37.528C75.2606 37.215 75.0426 36.9466 74.7407 36.723C74.45 36.4994 74.0364 36.3876 73.4997 36.3876C72.2027 36.3876 71.5319 37.0585 71.4871 38.4001C71.476 38.7132 71.4704 39.194 71.4704 39.8425C71.4704 40.4909 71.476 40.9773 71.4871 41.3015C71.5319 42.7215 72.2139 43.4315 73.5332 43.4315C74.1817 43.4315 74.696 43.2693 75.0762 42.9451C75.4563 42.6209 75.6464 42.1289 75.6464 41.4692V41.1674H74.1537C74.0308 41.1674 73.9245 41.1282 73.8351 41.05C73.7568 40.9605 73.7177 40.8543 73.7177 40.7313V39.4232C73.7177 39.3002 73.7568 39.1996 73.8351 39.1213C73.9245 39.0319 74.0308 38.9871 74.1537 38.9871H78.4136C78.5366 38.9871 78.6372 39.0319 78.7155 39.1213C78.8049 39.1996 78.8497 39.3002 78.8497 39.4232V41.3686C78.8497 42.319 78.626 43.1408 78.1788 43.834C77.7428 44.516 77.1222 45.0415 76.3172 45.4105C75.5122 45.7682 74.573 45.9471 73.4997 45.9471ZM84.7138 45.9471C83.305 45.9471 82.2205 45.6229 81.4602 44.9744C80.7111 44.3147 80.303 43.3812 80.2359 42.1736C80.2247 42.0283 80.2191 41.7767 80.2191 41.4189C80.2191 41.0612 80.2247 40.8096 80.2359 40.6642C80.303 39.4791 80.7223 38.5567 81.4937 37.897C82.2764 37.2262 83.3497 36.8907 84.7138 36.8907C86.0778 36.8907 87.1456 37.2262 87.917 37.897C88.6997 38.5567 89.1246 39.4791 89.1917 40.6642C89.214 40.9549 89.2252 41.2065 89.2252 41.4189C89.2252 41.6314 89.214 41.8829 89.1917 42.1736C89.1246 43.3812 88.7109 44.3147 87.9506 44.9744C87.2015 45.6229 86.1225 45.9471 84.7138 45.9471ZM84.7138 43.834C85.1722 43.834 85.5132 43.6942 85.7368 43.4147C85.9604 43.124 86.089 42.6824 86.1225 42.0898C86.1337 41.978 86.1393 41.7544 86.1393 41.4189C86.1393 41.0835 86.1337 40.8599 86.1225 40.7481C86.089 40.1667 85.9604 39.7306 85.7368 39.4399C85.5132 39.1492 85.1722 39.0039 84.7138 39.0039C84.2554 39.0039 83.9143 39.1492 83.6907 39.4399C83.4671 39.7306 83.3385 40.1667 83.305 40.7481L83.2882 41.4189L83.305 42.0898C83.3385 42.6824 83.4671 43.124 83.6907 43.4147C83.9143 43.6942 84.2554 43.834 84.7138 43.834ZM95.0155 45.9471C93.6068 45.9471 92.5222 45.6229 91.762 44.9744C91.0128 44.3147 90.6047 43.3812 90.5377 42.1736C90.5265 42.0283 90.5209 41.7767 90.5209 41.4189C90.5209 41.0612 90.5265 40.8096 90.5377 40.6642C90.6047 39.4791 91.024 38.5567 91.7955 37.897C92.5781 37.2262 93.6515 36.8907 95.0155 36.8907C96.3796 36.8907 97.4474 37.2262 98.2188 37.897C99.0015 38.5567 99.4263 39.4791 99.4934 40.6642C99.5158 40.9549 99.527 41.2065 99.527 41.4189C99.527 41.6314 99.5158 41.8829 99.4934 42.1736C99.4263 43.3812 99.0127 44.3147 98.2524 44.9744C97.5033 45.6229 96.4243 45.9471 95.0155 45.9471ZM95.0155 43.834C95.474 43.834 95.815 43.6942 96.0386 43.4147C96.2622 43.124 96.3908 42.6824 96.4243 42.0898C96.4355 41.978 96.4411 41.7544 96.4411 41.4189C96.4411 41.0835 96.4355 40.8599 96.4243 40.7481C96.3908 40.1667 96.2622 39.7306 96.0386 39.4399C95.815 39.1492 95.474 39.0039 95.0155 39.0039C94.5571 39.0039 94.2161 39.1492 93.9925 39.4399C93.7689 39.7306 93.6403 40.1667 93.6068 40.7481L93.59 41.4189L93.6068 42.0898C93.6403 42.6824 93.7689 43.124 93.9925 43.4147C94.2161 43.6942 94.5571 43.834 95.0155 43.834ZM105.485 49.4691C104.412 49.4691 103.54 49.2958 102.869 48.9492C102.198 48.6026 101.717 48.2 101.426 47.7416C101.136 47.2944 100.99 46.9199 100.99 46.618C100.99 46.5062 101.035 46.4111 101.125 46.3329C101.214 46.2546 101.315 46.2155 101.426 46.2155H103.674C103.786 46.2155 103.875 46.2378 103.942 46.2826C104.009 46.3385 104.071 46.4279 104.127 46.5509C104.238 46.7969 104.384 46.9869 104.563 47.1211C104.742 47.2665 105.021 47.3391 105.401 47.3391C105.882 47.3391 106.24 47.2161 106.475 46.9702C106.709 46.7354 106.827 46.3385 106.827 45.7794V44.6558C106.234 45.2707 105.424 45.5782 104.395 45.5782C103.266 45.5782 102.399 45.2539 101.795 44.6054C101.203 43.9458 100.879 42.9786 100.823 41.704L100.806 41.2512C100.806 39.8872 101.108 38.8194 101.712 38.0479C102.326 37.2765 103.221 36.8907 104.395 36.8907C104.965 36.8907 105.468 37.0025 105.904 37.2262C106.34 37.4386 106.704 37.7293 106.994 38.0983V37.4945C106.994 37.3715 107.034 37.2709 107.112 37.1926C107.19 37.1032 107.291 37.0585 107.414 37.0585H109.46C109.583 37.0585 109.683 37.1032 109.762 37.1926C109.851 37.2709 109.896 37.3715 109.896 37.4945V45.5279C109.896 46.8136 109.51 47.7919 108.739 48.4628C107.967 49.1336 106.883 49.4691 105.485 49.4691ZM105.351 43.3141C105.832 43.3141 106.189 43.1687 106.424 42.878C106.659 42.5873 106.793 42.2184 106.827 41.7711C106.838 41.6929 106.843 41.5252 106.843 41.268C106.843 40.9997 106.838 40.8319 106.827 40.7649C106.793 40.3065 106.659 39.9375 106.424 39.658C106.189 39.3673 105.832 39.2219 105.351 39.2219C104.859 39.2219 104.501 39.3729 104.278 39.6747C104.054 39.9654 103.931 40.3735 103.909 40.899L103.892 41.268C103.892 41.9053 103.998 42.4084 104.21 42.7774C104.423 43.1352 104.803 43.3141 105.351 43.3141ZM112.255 45.7794C112.132 45.7794 112.026 45.7403 111.937 45.662C111.859 45.5838 111.819 45.4831 111.819 45.3601V34.2912C111.819 34.1682 111.859 34.0676 111.937 33.9893C112.026 33.9111 112.132 33.8719 112.255 33.8719H114.352C114.475 33.8719 114.575 33.9111 114.654 33.9893C114.732 34.0676 114.771 34.1682 114.771 34.2912V45.3601C114.771 45.4719 114.732 45.5726 114.654 45.662C114.575 45.7403 114.475 45.7794 114.352 45.7794H112.255ZM120.776 45.9471C119.412 45.9471 118.338 45.5838 117.556 44.857C116.773 44.1191 116.371 43.0513 116.348 41.6537V41.1338C116.393 39.8033 116.807 38.7635 117.589 38.0144C118.372 37.2653 119.429 36.8907 120.759 36.8907C121.721 36.8907 122.531 37.0864 123.191 37.4777C123.862 37.8579 124.359 38.389 124.683 39.071C125.019 39.7418 125.187 40.5077 125.187 41.3686V41.7879C125.187 41.9109 125.142 42.0171 125.052 42.1066C124.974 42.1848 124.874 42.2239 124.751 42.2239H119.434V42.3246C119.445 42.8277 119.563 43.2358 119.786 43.5489C120.01 43.8507 120.329 44.0017 120.742 44.0017C121.011 44.0017 121.223 43.9514 121.38 43.8507C121.547 43.7389 121.704 43.5992 121.849 43.4315C121.95 43.3197 122.028 43.2526 122.084 43.2302C122.151 43.1967 122.252 43.1799 122.386 43.1799H124.583C124.683 43.1799 124.767 43.2134 124.834 43.2805C124.913 43.3364 124.952 43.4091 124.952 43.4986C124.952 43.7892 124.784 44.1303 124.449 44.5216C124.124 44.9129 123.644 45.2483 123.006 45.5279C122.38 45.8074 121.637 45.9471 120.776 45.9471ZM122.101 40.5133V40.4798C122.101 39.9431 121.983 39.5294 121.749 39.2387C121.514 38.9368 121.184 38.7859 120.759 38.7859C120.334 38.7859 120.004 38.9368 119.77 39.2387C119.546 39.5294 119.434 39.9431 119.434 40.4798V40.5133H122.101ZM130.816 45.7794C130.704 45.7794 130.603 45.7403 130.514 45.662C130.436 45.5726 130.396 45.4719 130.396 45.3601V34.4757C130.396 34.3527 130.436 34.2521 130.514 34.1738C130.592 34.0844 130.693 34.0397 130.816 34.0397H135.562C137.015 34.0397 138.156 34.3695 138.983 35.0291C139.811 35.6888 140.224 36.6559 140.224 37.9305C140.224 39.2052 139.811 40.1611 138.983 40.7984C138.156 41.4245 137.015 41.7376 135.562 41.7376H133.65V45.3601C133.65 45.4719 133.611 45.5726 133.533 45.662C133.454 45.7403 133.354 45.7794 133.231 45.7794H130.816ZM135.478 39.3393C135.936 39.3393 136.294 39.2219 136.551 38.9871C136.82 38.7412 136.954 38.3834 136.954 37.9138C136.954 37.4777 136.831 37.1255 136.585 36.8572C136.35 36.5889 135.981 36.4547 135.478 36.4547H133.6V39.3393H135.478ZM142.031 45.7794C141.908 45.7794 141.801 45.7403 141.712 45.662C141.634 45.5838 141.595 45.4831 141.595 45.3601V34.2912C141.595 34.1682 141.634 34.0676 141.712 33.9893C141.801 33.9111 141.908 33.8719 142.031 33.8719H144.127C144.25 33.8719 144.351 33.9111 144.429 33.9893C144.507 34.0676 144.546 34.1682 144.546 34.2912V45.3601C144.546 45.4719 144.507 45.5726 144.429 45.662C144.351 45.7403 144.25 45.7794 144.127 45.7794H142.031ZM149.092 45.9471C148.499 45.9471 147.957 45.8353 147.465 45.6117C146.984 45.3769 146.604 45.0583 146.325 44.6558C146.056 44.2532 145.922 43.8116 145.922 43.3308C145.922 42.5706 146.235 41.9556 146.861 41.486C147.499 41.0052 148.371 40.6754 149.478 40.4965L151.557 40.1779V39.9766C151.557 39.5629 151.473 39.2611 151.306 39.071C151.138 38.8809 150.853 38.7859 150.45 38.7859C150.227 38.7859 150.037 38.825 149.88 38.9033C149.735 38.9815 149.567 39.0989 149.377 39.2555C149.232 39.3785 149.103 39.4679 148.991 39.5238C148.947 39.6021 148.891 39.6412 148.824 39.6412H146.878C146.766 39.6412 146.671 39.6077 146.593 39.5406C146.526 39.4623 146.498 39.3729 146.509 39.2722C146.52 38.9704 146.671 38.6349 146.962 38.266C147.253 37.8858 147.694 37.5616 148.287 37.2932C148.88 37.0249 149.612 36.8907 150.484 36.8907C151.87 36.8907 152.899 37.1982 153.57 37.8132C154.241 38.4169 154.576 39.2387 154.576 40.2785V45.3601C154.576 45.4719 154.537 45.5726 154.459 45.662C154.38 45.7403 154.28 45.7794 154.157 45.7794H152.094C151.982 45.7794 151.882 45.7403 151.792 45.662C151.714 45.5726 151.675 45.4719 151.675 45.3601V44.7732C151.429 45.1198 151.088 45.4049 150.652 45.6285C150.216 45.8409 149.696 45.9471 149.092 45.9471ZM149.931 43.9681C150.422 43.9681 150.819 43.806 151.121 43.4818C151.434 43.1575 151.591 42.6879 151.591 42.073V41.8718L150.199 42.1066C149.26 42.2854 148.79 42.6209 148.79 43.1128C148.79 43.37 148.896 43.5768 149.109 43.7333C149.332 43.8899 149.606 43.9681 149.931 43.9681ZM157.749 48.9659C157.648 48.9659 157.565 48.9324 157.498 48.8653C157.43 48.7982 157.397 48.7144 157.397 48.6137C157.397 48.5355 157.408 48.4628 157.43 48.3957L158.755 45.2427L155.535 37.6287C155.502 37.5392 155.485 37.4777 155.485 37.4442C155.507 37.3324 155.552 37.2429 155.619 37.1758C155.697 37.0976 155.787 37.0585 155.888 37.0585H157.883C158.118 37.0585 158.28 37.1758 158.37 37.4106L160.231 42.1736L162.143 37.4106C162.255 37.1758 162.423 37.0585 162.646 37.0585H164.625C164.726 37.0585 164.81 37.0976 164.877 37.1758C164.955 37.2429 164.994 37.3212 164.994 37.4106C164.994 37.4889 164.983 37.5616 164.961 37.6287L160.214 48.6137C160.103 48.8485 159.929 48.9659 159.695 48.9659H157.749Z" fill="white"/>
<path d="M46.2742 29.7638L35.6301 18.8883L49.1725 26.8104L46.2742 29.7638ZM32.853 18.249C32.2256 18.5832 31.8066 19.1926 31.8066 19.9836V41.671C31.8066 42.4621 32.2264 43.0715 32.853 43.4057L45.2286 30.8246L32.853 18.249ZM53.3587 29.3361L50.5183 27.6605L47.3499 30.8301L50.5183 33.9997L53.4166 32.3241C54.2847 31.6219 54.2847 30.0391 53.3587 29.3361ZM35.6309 42.7727L49.1733 34.8505L46.275 31.8971L35.6309 42.7727Z" fill="white"/>
</svg>
