<svg width="202" height="63" viewBox="0 0 202 63" fill="none" xmlns="http://www.w3.org/2000/svg">
<rect width="202" height="62.5915" rx="11.3803" fill="#33303E"/>
<path d="M68.8289 24.5785C68.7451 24.5785 68.678 24.5533 68.6277 24.503C68.5774 24.4443 68.5522 24.373 68.5522 24.2892V16.0755C68.5522 15.9833 68.5774 15.912 68.6277 15.8617C68.678 15.803 68.7451 15.7737 68.8289 15.7737H71.6716C72.9378 15.7737 73.8519 16.0588 74.4137 16.629C74.9755 17.1908 75.2648 18.042 75.2816 19.1824C75.29 19.4256 75.2942 19.7526 75.2942 20.1635C75.2942 20.5744 75.29 20.9056 75.2816 21.1572C75.2648 21.9538 75.1349 22.6037 74.8917 23.1068C74.6569 23.6016 74.2837 23.9705 73.7722 24.2137C73.2607 24.4569 72.5815 24.5785 71.7345 24.5785H68.8289ZM71.6716 23.5345C72.2586 23.5345 72.724 23.4548 73.0678 23.2955C73.42 23.1278 73.6716 22.872 73.8225 22.5282C73.9818 22.176 74.0699 21.7022 74.0867 21.1069C74.1034 20.6037 74.1118 20.2893 74.1118 20.1635C74.1118 20.0293 74.1034 19.7191 74.0867 19.2327C74.0699 18.3942 73.8686 17.782 73.4829 17.3963C73.1056 17.0022 72.4808 16.8051 71.6087 16.8051H69.7346V23.5345H71.6716ZM79.7026 24.7043C78.7802 24.7043 78.0674 24.4443 77.5643 23.9244C77.0695 23.4045 76.8054 22.7127 76.7718 21.849L76.7593 21.3081L76.7718 20.7673C76.8054 19.9036 77.0737 19.2117 77.5769 18.6918C78.0884 18.1719 78.7969 17.912 79.7026 17.912C80.6082 17.912 81.3126 18.1719 81.8157 18.6918C82.3273 19.2117 82.5998 19.9036 82.6333 20.7673C82.6501 20.9517 82.6585 21.132 82.6585 21.3081C82.6585 21.4842 82.6501 21.6645 82.6333 21.849C82.5998 22.7127 82.3315 23.4045 81.8283 23.9244C81.3336 24.4443 80.625 24.7043 79.7026 24.7043ZM79.7026 23.7609C80.2393 23.7609 80.6627 23.5932 80.973 23.2578C81.2916 22.914 81.4636 22.4234 81.4887 21.7861C81.4971 21.7022 81.5013 21.5429 81.5013 21.3081C81.5013 21.0733 81.4971 20.914 81.4887 20.8302C81.4636 20.1929 81.2916 19.7065 80.973 19.3711C80.6627 19.0273 80.2393 18.8554 79.7026 18.8554C79.1659 18.8554 78.7382 19.0273 78.4196 19.3711C78.1093 19.7065 77.9416 20.1929 77.9165 20.8302L77.9039 21.3081L77.9165 21.7861C77.9416 22.4234 78.1093 22.914 78.4196 23.2578C78.7382 23.5932 79.1659 23.7609 79.7026 23.7609ZM85.8105 24.5785C85.6931 24.5785 85.6051 24.5533 85.5464 24.503C85.4877 24.4527 85.4416 24.373 85.408 24.264L83.6219 18.4277L83.5968 18.3019C83.5968 18.2264 83.6219 18.1636 83.6722 18.1132C83.7225 18.0629 83.7854 18.0378 83.8609 18.0378H84.3766C84.4605 18.0378 84.5276 18.0629 84.5779 18.1132C84.6366 18.1552 84.6701 18.1971 84.6785 18.239L86.0998 23.0439L87.6092 18.3019C87.626 18.2348 87.6637 18.1761 87.7224 18.1258C87.7811 18.0671 87.8608 18.0378 87.9614 18.0378H88.3639C88.4646 18.0378 88.5442 18.0671 88.6029 18.1258C88.6616 18.1761 88.6994 18.2348 88.7161 18.3019L90.2255 23.0439L91.6469 18.239C91.6553 18.1971 91.6846 18.1552 91.7349 18.1132C91.7936 18.0629 91.8649 18.0378 91.9488 18.0378H92.4645C92.5399 18.0378 92.6028 18.0629 92.6531 18.1132C92.7035 18.1636 92.7286 18.2264 92.7286 18.3019L92.7035 18.4277L90.9173 24.264C90.8838 24.373 90.8377 24.4527 90.779 24.503C90.7203 24.5533 90.6322 24.5785 90.5148 24.5785H90.062C89.844 24.5785 89.7014 24.4737 89.6343 24.264L88.1627 19.7107L86.691 24.264C86.6239 24.4737 86.4814 24.5785 86.2634 24.5785H85.8105ZM94.4242 24.5785C94.3404 24.5785 94.2691 24.5533 94.2104 24.503C94.1601 24.4443 94.1349 24.373 94.1349 24.2892V18.3271C94.1349 18.2432 94.1601 18.1761 94.2104 18.1258C94.2691 18.0671 94.3404 18.0378 94.4242 18.0378H94.9651C95.0573 18.0378 95.1286 18.0629 95.1789 18.1132C95.2292 18.1636 95.2544 18.2348 95.2544 18.3271V18.8805C95.506 18.5702 95.7953 18.3313 96.1223 18.1635C96.4577 17.9958 96.8728 17.912 97.3676 17.912C98.1726 17.912 98.7973 18.1719 99.2417 18.6918C99.6862 19.2034 99.9084 19.8826 99.9084 20.7295V24.2892C99.9084 24.373 99.879 24.4443 99.8203 24.503C99.77 24.5533 99.7029 24.5785 99.6191 24.5785H99.0405C98.9566 24.5785 98.8853 24.5533 98.8266 24.503C98.7763 24.4443 98.7512 24.373 98.7512 24.2892V20.805C98.7512 20.2012 98.6044 19.7316 98.3109 19.3962C98.0174 19.0608 97.5982 18.8931 97.0531 18.8931C96.5164 18.8931 96.0888 19.065 95.7701 19.4088C95.4515 19.7442 95.2921 20.2096 95.2921 20.805V24.2892C95.2921 24.373 95.2628 24.4443 95.2041 24.503C95.1538 24.5533 95.0867 24.5785 95.0028 24.5785H94.4242ZM102.028 24.5785C101.944 24.5785 101.873 24.5533 101.814 24.503C101.764 24.4443 101.739 24.373 101.739 24.2892V15.9372C101.739 15.8449 101.764 15.7737 101.814 15.7234C101.873 15.673 101.944 15.6479 102.028 15.6479H102.581C102.665 15.6479 102.732 15.6772 102.783 15.7359C102.841 15.7862 102.871 15.8533 102.871 15.9372V24.2892C102.871 24.373 102.841 24.4443 102.783 24.503C102.732 24.5533 102.665 24.5785 102.581 24.5785H102.028ZM107.414 24.7043C106.492 24.7043 105.779 24.4443 105.276 23.9244C104.781 23.4045 104.517 22.7127 104.483 21.849L104.471 21.3081L104.483 20.7673C104.517 19.9036 104.785 19.2117 105.288 18.6918C105.8 18.1719 106.509 17.912 107.414 17.912C108.32 17.912 109.024 18.1719 109.527 18.6918C110.039 19.2117 110.311 19.9036 110.345 20.7673C110.362 20.9517 110.37 21.132 110.37 21.3081C110.37 21.4842 110.362 21.6645 110.345 21.849C110.311 22.7127 110.043 23.4045 109.54 23.9244C109.045 24.4443 108.337 24.7043 107.414 24.7043ZM107.414 23.7609C107.951 23.7609 108.374 23.5932 108.685 23.2578C109.003 22.914 109.175 22.4234 109.2 21.7861C109.209 21.7022 109.213 21.5429 109.213 21.3081C109.213 21.0733 109.209 20.914 109.2 20.8302C109.175 20.1929 109.003 19.7065 108.685 19.3711C108.374 19.0273 107.951 18.8554 107.414 18.8554C106.878 18.8554 106.45 19.0273 106.131 19.3711C105.821 19.7065 105.653 20.1929 105.628 20.8302L105.615 21.3081L105.628 21.7861C105.653 22.4234 105.821 22.914 106.131 23.2578C106.45 23.5932 106.878 23.7609 107.414 23.7609ZM113.77 24.7043C113.359 24.7043 112.977 24.6204 112.625 24.4527C112.281 24.285 112.004 24.0586 111.795 23.7735C111.594 23.48 111.493 23.1571 111.493 22.8049C111.493 22.2515 111.719 21.7987 112.172 21.4465C112.625 21.0943 113.241 20.8595 114.021 20.7421L115.908 20.478V20.1132C115.908 19.2495 115.409 18.8176 114.411 18.8176C114.025 18.8176 113.715 18.8973 113.48 19.0566C113.245 19.2076 113.074 19.3878 112.965 19.5975C112.931 19.6813 112.893 19.74 112.851 19.7736C112.818 19.7987 112.768 19.8113 112.7 19.8113H112.21C112.134 19.8113 112.067 19.7862 112.009 19.7358C111.958 19.6771 111.933 19.6101 111.933 19.5346C111.933 19.3417 112.021 19.1195 112.197 18.8679C112.382 18.608 112.663 18.3858 113.04 18.2013C113.417 18.0084 113.879 17.912 114.424 17.912C115.363 17.912 116.034 18.13 116.436 18.5661C116.847 19.0021 117.053 19.5472 117.053 20.2012V24.2892C117.053 24.373 117.023 24.4443 116.964 24.503C116.914 24.5533 116.847 24.5785 116.763 24.5785H116.21C116.126 24.5785 116.059 24.5533 116.009 24.503C115.958 24.4443 115.933 24.373 115.933 24.2892V23.7357C115.749 24.0125 115.48 24.2431 115.128 24.4276C114.776 24.612 114.323 24.7043 113.77 24.7043ZM114.021 23.7861C114.575 23.7861 115.027 23.6058 115.38 23.2452C115.732 22.8846 115.908 22.3605 115.908 21.6729V21.3207L114.436 21.5345C113.832 21.6184 113.375 21.7609 113.065 21.9622C112.755 22.1635 112.6 22.415 112.6 22.7169C112.6 23.0607 112.738 23.3249 113.015 23.5093C113.3 23.6938 113.635 23.7861 114.021 23.7861ZM121.264 24.7043C120.383 24.7043 119.721 24.4192 119.276 23.8489C118.84 23.2787 118.606 22.5576 118.572 21.6855L118.559 21.3081L118.572 20.9308C118.606 20.0671 118.845 19.3501 119.289 18.7799C119.733 18.2013 120.392 17.912 121.264 17.912C122.136 17.912 122.815 18.2222 123.301 18.8428V15.9372C123.301 15.8533 123.327 15.7862 123.377 15.7359C123.436 15.6772 123.507 15.6479 123.591 15.6479H124.157C124.241 15.6479 124.308 15.6772 124.358 15.7359C124.417 15.7862 124.446 15.8533 124.446 15.9372V24.2892C124.446 24.373 124.417 24.4443 124.358 24.503C124.308 24.5533 124.241 24.5785 124.157 24.5785H123.616C123.532 24.5785 123.465 24.5533 123.415 24.503C123.364 24.4443 123.339 24.373 123.339 24.2892V23.7483C122.861 24.3856 122.169 24.7043 121.264 24.7043ZM121.503 23.7232C122.09 23.7232 122.53 23.5303 122.824 23.1446C123.117 22.7504 123.276 22.285 123.301 21.7484C123.31 21.6561 123.314 21.4968 123.314 21.2704C123.314 21.0356 123.31 20.8721 123.301 20.7798C123.285 20.2683 123.121 19.8281 122.811 19.4591C122.509 19.0818 122.073 18.8931 121.503 18.8931C120.899 18.8931 120.459 19.0818 120.182 19.4591C119.905 19.8365 119.754 20.3312 119.729 20.9434L119.717 21.3081C119.717 22.9182 120.312 23.7232 121.503 23.7232ZM131.37 24.5785C131.152 24.5785 130.997 24.4737 130.905 24.264L128.566 18.4277C128.557 18.4025 128.553 18.3606 128.553 18.3019C128.553 18.2264 128.578 18.1636 128.628 18.1132C128.679 18.0629 128.737 18.0378 128.804 18.0378H129.383C129.517 18.0378 129.618 18.1049 129.685 18.239L131.622 23.2578L133.559 18.239C133.576 18.1887 133.609 18.1426 133.66 18.1007C133.718 18.0587 133.786 18.0378 133.861 18.0378H134.44C134.507 18.0378 134.565 18.0629 134.616 18.1132C134.666 18.1636 134.691 18.2264 134.691 18.3019L134.666 18.4277L132.339 24.264C132.247 24.4737 132.092 24.5785 131.874 24.5785H131.37ZM136.223 16.8051C136.139 16.8051 136.068 16.7799 136.009 16.7296C135.959 16.6709 135.933 16.5996 135.933 16.5158V15.8617C135.933 15.7779 135.959 15.7066 136.009 15.6479C136.068 15.5892 136.139 15.5598 136.223 15.5598H136.965C137.049 15.5598 137.12 15.5892 137.179 15.6479C137.237 15.7066 137.267 15.7779 137.267 15.8617V16.5158C137.267 16.5996 137.237 16.6709 137.179 16.7296C137.12 16.7799 137.049 16.8051 136.965 16.8051H136.223ZM136.323 24.5785C136.239 24.5785 136.168 24.5533 136.109 24.503C136.059 24.4443 136.034 24.373 136.034 24.2892V18.3271C136.034 18.2432 136.059 18.1761 136.109 18.1258C136.168 18.0671 136.239 18.0378 136.323 18.0378H136.877C136.961 18.0378 137.028 18.0671 137.078 18.1258C137.137 18.1761 137.166 18.2432 137.166 18.3271V24.2892C137.166 24.373 137.137 24.4443 137.078 24.503C137.028 24.5533 136.961 24.5785 136.877 24.5785H136.323ZM140.867 24.7043C140.456 24.7043 140.075 24.6204 139.722 24.4527C139.379 24.285 139.102 24.0586 138.892 23.7735C138.691 23.48 138.59 23.1571 138.59 22.8049C138.59 22.2515 138.817 21.7987 139.27 21.4465C139.722 21.0943 140.339 20.8595 141.119 20.7421L143.005 20.478V20.1132C143.005 19.2495 142.506 18.8176 141.508 18.8176C141.123 18.8176 140.812 18.8973 140.578 19.0566C140.343 19.2076 140.171 19.3878 140.062 19.5975C140.028 19.6813 139.991 19.74 139.949 19.7736C139.915 19.7987 139.865 19.8113 139.798 19.8113H139.307C139.232 19.8113 139.165 19.7862 139.106 19.7358C139.056 19.6771 139.031 19.6101 139.031 19.5346C139.031 19.3417 139.119 19.1195 139.295 18.8679C139.479 18.608 139.76 18.3858 140.137 18.2013C140.515 18.0084 140.976 17.912 141.521 17.912C142.46 17.912 143.131 18.13 143.534 18.5661C143.944 19.0021 144.15 19.5472 144.15 20.2012V24.2892C144.15 24.373 144.121 24.4443 144.062 24.503C144.012 24.5533 143.944 24.5785 143.861 24.5785H143.307C143.223 24.5785 143.156 24.5533 143.106 24.503C143.056 24.4443 143.03 24.373 143.03 24.2892V23.7357C142.846 24.0125 142.578 24.2431 142.225 24.4276C141.873 24.612 141.42 24.7043 140.867 24.7043ZM141.119 23.7861C141.672 23.7861 142.125 23.6058 142.477 23.2452C142.829 22.8846 143.005 22.3605 143.005 21.6729V21.3207L141.534 21.5345C140.93 21.6184 140.473 21.7609 140.163 21.9622C139.852 22.1635 139.697 22.415 139.697 22.7169C139.697 23.0607 139.836 23.3249 140.112 23.5093C140.397 23.6938 140.733 23.7861 141.119 23.7861Z" fill="white"/>
<path d="M67.9317 45.3495C67.8422 45.3495 67.7584 45.3159 67.6801 45.2489C67.613 45.1706 67.5795 45.0867 67.5795 44.9973C67.5795 44.9302 67.5851 44.8799 67.5963 44.8464L71.5039 34.0961C71.6157 33.7718 71.8393 33.6097 72.1748 33.6097H74.7911C75.1265 33.6097 75.3501 33.7718 75.4619 34.0961L79.3696 44.8464C79.3807 44.8799 79.3863 44.9302 79.3863 44.9973C79.3863 45.0867 79.3472 45.1706 79.2689 45.2489C79.2018 45.3159 79.1236 45.3495 79.0341 45.3495H76.8539C76.5856 45.3495 76.3955 45.2265 76.2837 44.9805L75.6799 43.3537H71.2859L70.6821 44.9805C70.5703 45.2265 70.3803 45.3495 70.1119 45.3495H67.9317ZM71.9903 40.8381H74.9755L73.4829 36.5614L71.9903 40.8381ZM80.9079 48.536C80.7849 48.536 80.6787 48.4969 80.5893 48.4186C80.511 48.3403 80.4719 48.2397 80.4719 48.1167V37.0478C80.4719 36.9248 80.511 36.8242 80.5893 36.7459C80.6787 36.6677 80.7849 36.6285 80.9079 36.6285H82.9037C83.0267 36.6285 83.1273 36.6677 83.2056 36.7459C83.2838 36.8242 83.3229 36.9248 83.3229 37.0478V37.6516C83.9267 36.8577 84.7932 36.4608 85.9225 36.4608C87.007 36.4608 87.8567 36.8018 88.4717 37.4838C89.0978 38.1547 89.4332 39.1162 89.4779 40.3685C89.4891 40.5138 89.4947 40.7207 89.4947 40.989C89.4947 41.2573 89.4891 41.4698 89.4779 41.6263C89.4332 42.8338 89.0978 43.7842 88.4717 44.4774C87.8456 45.1706 86.9958 45.5172 85.9225 45.5172C84.8379 45.5172 84.0273 45.1482 83.4907 44.4103V48.1167C83.4907 48.2397 83.4515 48.3403 83.3733 48.4186C83.295 48.4969 83.1944 48.536 83.0714 48.536H80.9079ZM84.9497 43.186C85.4529 43.186 85.8107 43.0407 86.0231 42.75C86.2467 42.4481 86.3753 42.0344 86.4088 41.5089C86.42 41.3971 86.4256 41.2238 86.4256 40.989C86.4256 40.7542 86.42 40.5809 86.4088 40.4691C86.3753 39.9436 86.2467 39.5355 86.0231 39.2448C85.8107 38.9429 85.4529 38.792 84.9497 38.792C84.469 38.792 84.1112 38.9485 83.8764 39.2616C83.6416 39.5635 83.513 39.9492 83.4907 40.4188C83.4795 40.5641 83.4739 40.7766 83.4739 41.0561C83.4739 41.3244 83.4795 41.5313 83.4907 41.6766C83.513 42.1127 83.6416 42.476 83.8764 42.7667C84.1224 43.0463 84.4802 43.186 84.9497 43.186ZM91.5372 48.536C91.4143 48.536 91.308 48.4969 91.2186 48.4186C91.1403 48.3403 91.1012 48.2397 91.1012 48.1167V37.0478C91.1012 36.9248 91.1403 36.8242 91.2186 36.7459C91.308 36.6677 91.4143 36.6285 91.5372 36.6285H93.533C93.656 36.6285 93.7566 36.6677 93.8349 36.7459C93.9131 36.8242 93.9523 36.9248 93.9523 37.0478V37.6516C94.556 36.8577 95.4225 36.4608 96.5518 36.4608C97.6363 36.4608 98.4861 36.8018 99.101 37.4838C99.7271 38.1547 100.063 39.1162 100.107 40.3685C100.118 40.5138 100.124 40.7207 100.124 40.989C100.124 41.2573 100.118 41.4698 100.107 41.6263C100.063 42.8338 99.7271 43.7842 99.101 44.4774C98.4749 45.1706 97.6252 45.5172 96.5518 45.5172C95.4673 45.5172 94.6567 45.1482 94.12 44.4103V48.1167C94.12 48.2397 94.0809 48.3403 94.0026 48.4186C93.9243 48.4969 93.8237 48.536 93.7007 48.536H91.5372ZM95.5791 43.186C96.0822 43.186 96.44 43.0407 96.6524 42.75C96.876 42.4481 97.0046 42.0344 97.0382 41.5089C97.0493 41.3971 97.0549 41.2238 97.0549 40.989C97.0549 40.7542 97.0493 40.5809 97.0382 40.4691C97.0046 39.9436 96.876 39.5355 96.6524 39.2448C96.44 38.9429 96.0822 38.792 95.5791 38.792C95.0983 38.792 94.7405 38.9485 94.5057 39.2616C94.2709 39.5635 94.1424 39.9492 94.12 40.4188C94.1088 40.5641 94.1032 40.7766 94.1032 41.0561C94.1032 41.3244 94.1088 41.5313 94.12 41.6766C94.1424 42.1127 94.2709 42.476 94.5057 42.7667C94.7517 43.0463 95.1095 43.186 95.5791 43.186ZM102.167 45.3495C102.044 45.3495 101.937 45.3104 101.848 45.2321C101.77 45.1538 101.731 45.0532 101.731 44.9302V33.8613C101.731 33.7383 101.77 33.6377 101.848 33.5594C101.937 33.4811 102.044 33.442 102.167 33.442H104.263C104.386 33.442 104.487 33.4811 104.565 33.5594C104.643 33.6377 104.682 33.7383 104.682 33.8613V44.9302C104.682 45.042 104.643 45.1426 104.565 45.2321C104.487 45.3104 104.386 45.3495 104.263 45.3495H102.167ZM110.687 45.5172C109.323 45.5172 108.25 45.1538 107.467 44.4271C106.684 43.6891 106.282 42.6214 106.259 41.2238V40.7039C106.304 39.3734 106.718 38.3336 107.5 37.5845C108.283 36.8354 109.34 36.4608 110.67 36.4608C111.632 36.4608 112.442 36.6565 113.102 37.0478C113.773 37.4279 114.27 37.959 114.595 38.6411C114.93 39.3119 115.098 40.0778 115.098 40.9387V41.358C115.098 41.481 115.053 41.5872 114.964 41.6766C114.885 41.7549 114.785 41.794 114.662 41.794H109.345V41.8946C109.356 42.3978 109.474 42.8059 109.697 43.1189C109.921 43.4208 110.24 43.5718 110.653 43.5718C110.922 43.5718 111.134 43.5214 111.291 43.4208C111.458 43.309 111.615 43.1692 111.76 43.0015C111.861 42.8897 111.939 42.8226 111.995 42.8003C112.062 42.7667 112.163 42.75 112.297 42.75H114.494C114.595 42.75 114.678 42.7835 114.746 42.8506C114.824 42.9065 114.863 42.9792 114.863 43.0686C114.863 43.3593 114.695 43.7003 114.36 44.0917C114.036 44.483 113.555 44.8184 112.918 45.0979C112.291 45.3774 111.548 45.5172 110.687 45.5172ZM112.012 40.0834V40.0498C112.012 39.5131 111.894 39.0995 111.66 38.8088C111.425 38.5069 111.095 38.3559 110.67 38.3559C110.245 38.3559 109.915 38.5069 109.681 38.8088C109.457 39.0995 109.345 39.5131 109.345 40.0498V40.0834H112.012ZM124.752 45.5172C123.667 45.5172 122.745 45.3607 121.985 45.0476C121.224 44.7345 120.649 44.3209 120.257 43.8065C119.866 43.2922 119.659 42.7332 119.637 42.1294C119.637 42.0288 119.67 41.945 119.737 41.8779C119.816 41.8108 119.905 41.7772 120.006 41.7772H122.236C122.37 41.7772 122.477 41.7996 122.555 41.8443C122.644 41.8891 122.739 41.9673 122.84 42.0791C122.985 42.3475 123.209 42.5711 123.511 42.75C123.824 42.9177 124.238 43.0015 124.752 43.0015C125.356 43.0015 125.82 42.9121 126.144 42.7332C126.468 42.5431 126.63 42.286 126.63 41.9617C126.63 41.7269 126.546 41.5369 126.379 41.3915C126.211 41.235 125.943 41.1008 125.574 40.989C125.205 40.866 124.674 40.7318 123.98 40.5865C122.628 40.3182 121.616 39.9101 120.945 39.3622C120.274 38.8144 119.939 38.0317 119.939 37.0143C119.939 36.3211 120.129 35.7061 120.509 35.1694C120.9 34.6216 121.448 34.1967 122.152 33.8948C122.868 33.593 123.695 33.442 124.634 33.442C125.618 33.442 126.468 33.6153 127.184 33.9619C127.91 34.2973 128.464 34.7222 128.844 35.2365C129.235 35.7397 129.442 36.2372 129.465 36.7291C129.465 36.8298 129.431 36.9192 129.364 36.9975C129.297 37.0646 129.213 37.0981 129.112 37.0981H126.764C126.518 37.0981 126.328 36.9975 126.194 36.7962C126.127 36.5614 125.954 36.3658 125.674 36.2092C125.395 36.0415 125.048 35.9577 124.634 35.9577C124.165 35.9577 123.802 36.0415 123.544 36.2092C123.287 36.377 123.159 36.6229 123.159 36.9472C123.159 37.2714 123.326 37.5286 123.662 37.7186C123.997 37.8975 124.623 38.082 125.54 38.2721C126.591 38.4622 127.424 38.7025 128.039 38.9932C128.665 39.2728 129.124 39.6417 129.414 40.1001C129.716 40.5474 129.867 41.1176 129.867 41.8108C129.867 42.5711 129.649 43.2307 129.213 43.7898C128.777 44.3488 128.173 44.7793 127.402 45.0811C126.63 45.3718 125.747 45.5172 124.752 45.5172ZM135.871 45.3495C133.501 45.3495 132.316 44.237 132.316 42.012V38.9094H130.991C130.879 38.9094 130.779 38.8703 130.689 38.792C130.611 38.7025 130.572 38.6019 130.572 38.4901V37.0478C130.572 36.9248 130.611 36.8242 130.689 36.7459C130.779 36.6677 130.879 36.6285 130.991 36.6285H132.316V33.8613C132.316 33.7383 132.355 33.6377 132.433 33.5594C132.523 33.4811 132.623 33.442 132.735 33.442H134.798C134.921 33.442 135.022 33.4811 135.1 33.5594C135.178 33.6377 135.217 33.7383 135.217 33.8613V36.6285H137.314C137.437 36.6285 137.537 36.6677 137.616 36.7459C137.705 36.8242 137.75 36.9248 137.75 37.0478V38.4901C137.75 38.6131 137.705 38.7137 137.616 38.792C137.537 38.8703 137.437 38.9094 137.314 38.9094H135.217V41.7605C135.217 42.1518 135.29 42.4481 135.435 42.6493C135.581 42.8506 135.815 42.9512 136.14 42.9512H137.465C137.588 42.9512 137.688 42.9959 137.766 43.0854C137.845 43.1637 137.884 43.2643 137.884 43.3873V44.9302C137.884 45.042 137.845 45.1426 137.766 45.2321C137.688 45.3104 137.588 45.3495 137.465 45.3495H135.871ZM143.429 45.5172C142.02 45.5172 140.936 45.193 140.175 44.5445C139.426 43.8848 139.018 42.9512 138.951 41.7437C138.94 41.5984 138.934 41.3468 138.934 40.989C138.934 40.6312 138.94 40.3797 138.951 40.2343C139.018 39.0491 139.437 38.1267 140.209 37.4671C140.992 36.7962 142.065 36.4608 143.429 36.4608C144.793 36.4608 145.861 36.7962 146.632 37.4671C147.415 38.1267 147.84 39.0491 147.907 40.2343C147.929 40.525 147.94 40.7766 147.94 40.989C147.94 41.2014 147.929 41.453 147.907 41.7437C147.84 42.9512 147.426 43.8848 146.666 44.5445C145.917 45.193 144.838 45.5172 143.429 45.5172ZM143.429 43.404C143.887 43.404 144.228 43.2643 144.452 42.9848C144.676 42.6941 144.804 42.2524 144.838 41.6598C144.849 41.548 144.855 41.3244 144.855 40.989C144.855 40.6536 144.849 40.43 144.838 40.3182C144.804 39.7368 144.676 39.3007 144.452 39.01C144.228 38.7193 143.887 38.574 143.429 38.574C142.971 38.574 142.63 38.7193 142.406 39.01C142.182 39.3007 142.054 39.7368 142.02 40.3182L142.003 40.989L142.02 41.6598C142.054 42.2524 142.182 42.6941 142.406 42.9848C142.63 43.2643 142.971 43.404 143.429 43.404ZM149.957 45.3495C149.845 45.3495 149.745 45.3104 149.655 45.2321C149.577 45.1426 149.538 45.042 149.538 44.9302V37.0646C149.538 36.9416 149.577 36.841 149.655 36.7627C149.734 36.6732 149.834 36.6285 149.957 36.6285H152.003C152.126 36.6285 152.227 36.6732 152.305 36.7627C152.395 36.841 152.439 36.9416 152.439 37.0646V37.7019C152.752 37.3553 153.116 37.0925 153.529 36.9136C153.954 36.7236 154.424 36.6285 154.938 36.6285H155.693C155.816 36.6285 155.917 36.6677 155.995 36.7459C156.073 36.8242 156.112 36.9248 156.112 37.0478V38.8758C156.112 38.9877 156.073 39.0883 155.995 39.1777C155.917 39.256 155.816 39.2951 155.693 39.2951H153.999C153.552 39.2951 153.205 39.4181 152.959 39.6641C152.724 39.9101 152.607 40.2567 152.607 40.7039V44.9302C152.607 45.0532 152.562 45.1538 152.473 45.2321C152.395 45.3104 152.294 45.3495 152.171 45.3495H149.957ZM161.295 45.5172C159.931 45.5172 158.858 45.1538 158.075 44.4271C157.292 43.6891 156.89 42.6214 156.867 41.2238V40.7039C156.912 39.3734 157.326 38.3336 158.109 37.5845C158.891 36.8354 159.948 36.4608 161.278 36.4608C162.24 36.4608 163.05 36.6565 163.71 37.0478C164.381 37.4279 164.878 37.959 165.203 38.6411C165.538 39.3119 165.706 40.0778 165.706 40.9387V41.358C165.706 41.481 165.661 41.5872 165.572 41.6766C165.493 41.7549 165.393 41.794 165.27 41.794H159.953V41.8946C159.965 42.3978 160.082 42.8059 160.306 43.1189C160.529 43.4208 160.848 43.5718 161.261 43.5718C161.53 43.5718 161.742 43.5214 161.899 43.4208C162.066 43.309 162.223 43.1692 162.368 43.0015C162.469 42.8897 162.547 42.8226 162.603 42.8003C162.67 42.7667 162.771 42.75 162.905 42.75H165.102C165.203 42.75 165.287 42.7835 165.354 42.8506C165.432 42.9065 165.471 42.9792 165.471 43.0686C165.471 43.3593 165.303 43.7003 164.968 44.0917C164.644 44.483 164.163 44.8184 163.526 45.0979C162.899 45.3774 162.156 45.5172 161.295 45.5172ZM162.62 40.0834V40.0498C162.62 39.5131 162.503 39.0995 162.268 38.8088C162.033 38.5069 161.703 38.3559 161.278 38.3559C160.853 38.3559 160.524 38.5069 160.289 38.8088C160.065 39.0995 159.953 39.5131 159.953 40.0498V40.0834H162.62Z" fill="white"/>
<path d="M36.7349 42.414C36.1496 42.0292 35.6309 41.5538 35.1987 41.0059C34.7233 40.4404 34.2828 39.8471 33.8797 39.2293C32.9336 37.8595 32.1917 36.3624 31.6766 34.784C31.0579 32.9505 30.7583 31.1931 30.7583 29.4743C30.7583 27.5546 31.1785 25.8788 32.0004 24.4707C32.6096 23.3701 33.5053 22.4504 34.5949 21.8067C35.6508 21.1585 36.864 20.8038 38.1068 20.7799C38.5418 20.7799 39.0103 20.8422 39.5075 20.9614C39.8646 21.0613 40.2996 21.219 40.8312 21.4152C41.5074 21.6728 41.8794 21.8305 42.0055 21.869C42.4016 22.012 42.7346 22.0743 42.9962 22.0743C43.1947 22.0743 43.4748 22.012 43.793 21.9167C43.972 21.8543 44.3097 21.7443 44.793 21.5399C45.2716 21.3675 45.6482 21.2199 45.9478 21.1099C46.407 20.9761 46.8513 20.8523 47.2474 20.79C47.717 20.7168 48.1935 20.6974 48.6676 20.7322C49.4891 20.7853 50.2982 20.9573 51.0691 21.2429C52.3297 21.7443 53.3492 22.5272 54.108 23.6401C53.7872 23.8355 53.4862 24.0608 53.2091 24.313C52.6058 24.8416 52.0919 25.4621 51.6869 26.1511C51.1575 27.0926 50.8831 28.1533 50.8901 29.2304C50.9096 30.5533 51.2528 31.7184 51.929 32.7259C52.4262 33.4726 53.0723 34.1112 53.8278 34.6025C54.2146 34.8601 54.5476 35.037 54.8667 35.1562C54.7174 35.6146 54.5578 36.0583 54.3695 36.4983C53.9425 37.4851 53.4249 38.4311 52.8232 39.3246C52.2871 40.0938 51.8669 40.6667 51.5478 41.0481C51.0506 41.6302 50.5719 42.0748 50.0886 42.3847C49.5571 42.7331 48.9291 42.9192 48.291 42.9192C47.8587 42.9356 47.4266 42.8839 47.0109 42.7661C46.6537 42.6469 46.3003 42.5176 45.9525 42.37C45.5908 42.2059 45.2179 42.0671 44.8366 41.9547C43.8938 41.7154 42.9054 41.7139 41.9619 41.9502C41.5751 42.0602 41.2031 42.1885 40.8358 42.3462C40.3191 42.5607 39.9759 42.7046 39.7774 42.7661C39.3813 42.8807 38.9704 42.9522 38.5548 42.976C37.912 42.976 37.3128 42.7945 36.7191 42.4269L36.7349 42.414ZM45.2132 19.8485C44.3727 20.2638 43.5704 20.4407 42.7736 20.383C42.6483 19.59 42.7736 18.7787 43.1066 17.8903C43.3901 17.1378 43.809 16.4421 44.3431 15.8368C44.9071 15.1997 45.5914 14.6775 46.3578 14.2995C47.1741 13.8842 47.9524 13.6596 48.6963 13.6266C48.7928 14.4572 48.6963 15.274 48.3874 16.1568C48.1016 16.9372 47.6834 17.6638 47.1509 18.3056C46.6074 18.9436 45.9404 19.4679 45.189 19.8476L45.2132 19.8485Z" fill="white"/>
</svg>
