<svg width="24" height="24" viewBox="0 0 24 24" fill="none" xmlns="http://www.w3.org/2000/svg">
<g filter="url(#filter0_d_207_255)">
<path d="M4.36201 16H7.36201V4.9H4.36201V16ZM5.86201 0C4.86201 0 4.06201 0.8 4.06201 1.8C4.06201 2.8 4.86201 3.6 5.86201 3.6C6.86201 3.6 7.66201 2.8 7.66201 1.8C7.66201 0.8 6.86201 0 5.86201 0ZM12.462 6.6V4.9H9.46201V16H12.462V10.3C12.462 7.1 16.562 6.9 16.562 10.3V16H19.562V9.2C19.562 3.8 13.862 4 12.462 6.6Z" fill="white"/>
</g>
<defs>
<filter id="filter0_d_207_255" x="0.0620117" y="0" width="23.5" height="24" filterUnits="userSpaceOnUse" color-interpolation-filters="sRGB">
<feFlood flood-opacity="0" result="BackgroundImageFix"/>
<feColorMatrix in="SourceAlpha" type="matrix" values="0 0 0 0 0 0 0 0 0 0 0 0 0 0 0 0 0 0 127 0" result="hardAlpha"/>
<feOffset dy="4"/>
<feGaussianBlur stdDeviation="2"/>
<feComposite in2="hardAlpha" operator="out"/>
<feColorMatrix type="matrix" values="0 0 0 0 0 0 0 0 0 0 0 0 0 0 0 0 0 0 0.25 0"/>
<feBlend mode="normal" in2="BackgroundImageFix" result="effect1_dropShadow_207_255"/>
<feBlend mode="normal" in="SourceGraphic" in2="effect1_dropShadow_207_255" result="shape"/>
</filter>
</defs>
</svg>
